<svg width="350" height="147" viewBox="0 0 350 147" fill="none" xmlns="http://www.w3.org/2000/svg">
<path d="M72.1186 66.8157V5.30413C72.1186 2.37396 69.7447 0 66.8157 0H57.5949V72.1186H66.8157C69.7447 72.1186 72.1186 69.7447 72.1186 66.8157ZM38.2915 72.1186H52.8152V19.1457H38.2915V72.1186ZM0 14.5237H52.814V0H5.30291C2.37396 0 0 2.37396 0 5.30413V14.5237ZM33.6682 19.1531H0V33.6768H33.6682V19.1531ZM14.5237 38.4113H0V52.9338H14.5237V38.4113ZM14.5237 57.5961H0V66.8157C0 69.7447 2.37396 72.1186 5.30291 72.1186H14.5237V57.5961ZM33.6682 38.2915H19.1445V72.1186H33.6682V38.2915Z" fill="#4CC9F0"/>
<path d="M327.494 71.8429H319.778V131.273H327.494V71.8429ZM327.248 48.212C327.33 47.9651 327.494 46.0776 327.494 44.354C327.494 31.2202 319.696 23.4223 307.055 23.4223C296.466 23.4223 286.698 31.7947 286.698 44.9286C286.698 58.6357 296.712 66.6805 307.958 66.6805C318.301 66.6805 324.785 60.7701 326.756 53.7117L316.331 50.7559C315.182 53.9575 312.637 56.0918 308.122 56.0918C303.279 56.0918 299.093 52.8084 298.846 48.212H327.248ZM315.427 40.1672H299.093C299.339 37.1306 301.966 33.2714 307.219 33.2714C313.129 33.2714 315.264 37.0475 315.427 40.1672ZM279.884 36.5549C281.116 36.5549 282.429 36.638 283.825 36.9656V24.6533C283.004 24.4064 281.773 24.2425 280.542 24.2425C277.258 24.2425 272.086 25.5554 269.952 30.153V24.6533H257.886V65.4495H270.362V47.6375C270.362 39.5107 274.877 36.5549 279.884 36.5549ZM257.101 79.3119V85.715C257.101 89.1623 255.295 91.7893 251.027 91.7893H248.893V98.7669H256.444V120.437C256.444 127.578 260.713 131.682 267.443 131.682C270.07 131.682 272.041 131.19 272.697 130.944V124.377C272.041 124.541 270.645 124.706 269.661 124.706C265.638 124.706 264.161 122.899 264.161 119.288V98.7669H272.697V91.7893H264.161V79.3119H257.101ZM237.66 65.4495H249.645C249.563 64.7931 249.234 61.8372 249.234 58.1443V24.6533H236.757V47.8832C236.757 51.9869 234.131 54.8608 229.944 54.8608C225.511 54.8608 223.377 51.7412 223.377 47.8013V24.6533H210.9V50.4283C210.9 59.1283 216.482 66.3529 226.415 66.3529C230.518 66.3529 235.198 64.875 237.331 61.3446C237.331 62.4118 237.496 64.7112 237.66 65.4495ZM210.632 90.8859C204.229 90.8859 199.549 94.0056 197.416 97.9455V91.7893H189.946V146.868H197.58V125.937C199.714 129.466 204.311 132.34 210.385 132.34C221.959 132.34 228.773 123.228 228.773 111.49C228.773 99.9979 222.452 90.8859 210.632 90.8859ZM220.892 111.49C220.892 119.616 216.377 125.444 209.236 125.444C202.176 125.444 197.498 119.616 197.498 111.49C197.498 103.609 202.176 97.6997 209.236 97.6997C216.459 97.6997 220.892 103.609 220.892 111.49ZM195.388 35.5708H203.35V24.6533H195.388V12.7517H184.224V18.0045C184.224 21.7806 182.172 24.6533 177.904 24.6533H175.851V35.5708H183.075V53.054C183.075 61.1808 188.247 66.1879 196.701 66.1879C200.641 66.1879 202.693 65.2857 203.186 65.0388V54.6958C202.448 54.8608 201.215 55.1065 199.903 55.1065C197.194 55.1065 195.388 54.2031 195.388 50.8378V35.5708ZM158.06 65.4495H170.045C169.963 64.7931 169.634 61.8372 169.634 58.1443V24.6533H157.158V47.8832C157.158 51.9869 154.531 54.8608 150.344 54.8608C145.911 54.8608 143.777 51.7412 143.777 47.8013V24.6533H131.301V50.4283C131.301 59.1283 136.883 66.3529 146.815 66.3529C150.918 66.3529 155.598 64.875 157.732 61.3446C157.732 62.4118 157.896 64.7112 158.06 65.4495ZM103.064 19.5643H127.607V7.25195H90.0939V65.4495H103.146V43.6963H124.652V31.8766H103.064V19.5643ZM89.9656 102.132C89.9656 121.586 103.838 132.504 118.859 132.504C132.24 132.504 141.432 124.706 144.552 113.788L137.411 111.161C135.031 119.124 128.792 125.115 118.859 125.115C108.27 125.115 98.1742 117.317 98.1742 102.132C98.1742 86.946 108.27 79.23 118.859 79.23C128.382 79.23 134.784 84.1552 137 92.9384L144.47 90.3114C141.516 79.0662 132.158 71.8429 118.859 71.8429C104.412 71.8429 89.9656 82.6785 89.9656 102.132ZM148.657 120.683C148.657 126.922 153.829 132.504 161.873 132.504C168.932 132.504 172.872 128.728 174.596 125.937C174.596 128.809 174.843 130.287 175.007 131.273H182.559C182.395 130.287 182.066 128.235 182.066 124.788V105.005C182.066 97.289 177.47 90.5583 165.649 90.5583C157.113 90.5583 150.299 95.8111 149.478 103.363L156.866 105.087C157.358 100.491 160.396 97.1252 165.813 97.1252C171.805 97.1252 174.35 100.326 174.35 104.184C174.35 105.58 173.694 106.811 171.314 107.139L160.642 108.699C153.829 109.683 148.657 113.624 148.657 120.683ZM156.538 120.273C156.538 116.743 159 114.855 162.283 114.363L174.35 112.557V114.363C174.35 122.982 169.261 126.019 162.94 126.019C159 126.019 156.538 123.228 156.538 120.273ZM242.41 79.3535H234.776V86.9876H242.41V79.3535ZM242.41 91.7893H234.776V131.273H242.41V91.7893ZM278.032 120.683C278.032 126.922 283.204 132.504 291.248 132.504C298.307 132.504 302.247 128.728 303.972 125.937C303.972 128.809 304.218 130.287 304.381 131.273H311.934C311.77 130.287 311.441 128.235 311.441 124.788V105.005C311.441 97.289 306.845 90.5583 295.024 90.5583C286.488 90.5583 279.674 95.8111 278.853 103.363L286.241 105.087C286.733 100.491 289.771 97.1252 295.189 97.1252C301.18 97.1252 303.725 100.326 303.725 104.184C303.725 105.58 303.069 106.811 300.688 107.139L290.017 108.699C283.204 109.683 278.032 113.624 278.032 120.683ZM285.913 120.273C285.913 116.743 288.375 114.855 291.658 114.363L303.725 112.557V114.363C303.725 122.982 298.636 126.019 292.315 126.019C288.375 126.019 285.913 123.228 285.913 120.273Z" fill="#FCFCFC"/>
<path d="M343.672 118.657C344.889 118.657 345.974 118.93 346.927 119.476C347.901 120.023 348.651 120.781 349.179 121.753C349.726 122.704 350 123.786 350 125C350 126.214 349.726 127.307 349.179 128.278C348.651 129.229 347.901 129.978 346.927 130.524C345.974 131.07 344.889 131.343 343.672 131.343C342.455 131.343 341.36 131.07 340.386 130.524C339.433 129.978 338.683 129.229 338.135 128.278C337.587 127.307 337.313 126.214 337.313 125C337.313 123.786 337.587 122.704 338.135 121.753C338.683 120.781 339.433 120.023 340.386 119.476C341.36 118.93 342.455 118.657 343.672 118.657ZM343.672 129.947C345.132 129.947 346.299 129.492 347.171 128.581C348.063 127.671 348.509 126.477 348.509 125C348.509 123.523 348.063 122.329 347.171 121.419C346.299 120.508 345.132 120.053 343.672 120.053C342.191 120.053 341.015 120.508 340.143 121.419C339.271 122.329 338.835 123.523 338.835 125C338.835 126.477 339.271 127.671 340.143 128.581C341.015 129.492 342.191 129.947 343.672 129.947ZM346.471 123.786C346.471 124.231 346.359 124.626 346.136 124.97C345.913 125.293 345.609 125.536 345.224 125.698L346.836 128.187H344.524L343.185 125.911H342.972V128.187H341.056V121.662H344.128C344.838 121.662 345.406 121.864 345.832 122.269C346.258 122.653 346.471 123.159 346.471 123.786ZM342.972 124.363H344.007C344.169 124.363 344.301 124.322 344.402 124.241C344.524 124.14 344.585 124.009 344.585 123.847C344.585 123.685 344.524 123.563 344.402 123.483C344.301 123.402 344.169 123.361 344.007 123.361H342.972V124.363Z" fill="#FCFCFC"/>
</svg>
